HIERARCHY
ROOT root
{
	OFFSET 0.000000 0.000000 0.000000
	CHANNELS 6 Xposition Yposition Zposition Zrotation Yrotation Xrotation
	JOINT lhip
	{
		OFFSET 0.058581 -0.082280 -0.017664
		CHANNELS 3 Zrotation Yrotation Xrotation
		JOINT lknee
		{
			OFFSET 0.043451 -0.386469 0.008037
			CHANNELS 3 Zrotation Yrotation Xrotation
			JOINT lankle
			{
				OFFSET -0.014790 -0.426874 -0.037428
				CHANNELS 3 Zrotation Yrotation Xrotation
				JOINT ltoe
				{
					OFFSET 0.041054 -0.060286 0.122042
					CHANNELS 3 Zrotation Yrotation Xrotation
					End Site
					{
						OFFSET 0.000000 0.000000 0.000000
					}
				}
			}
		}
	}
	JOINT rhip
	{
		OFFSET -0.060310 -0.090513 -0.013543
		CHANNELS 3 Zrotation Yrotation Xrotation
		JOINT rknee
		{
			OFFSET -0.043257 -0.383688 -0.004843
			CHANNELS 3 Zrotation Yrotation Xrotation
			JOINT rankle
			{
				OFFSET 0.019056 -0.420046 -0.034562
				CHANNELS 3 Zrotation Yrotation Xrotation
				JOINT rtoe
				{
					OFFSET -0.034840 -0.062106 0.130323
					CHANNELS 3 Zrotation Yrotation Xrotation
					End Site
					{
						OFFSET 0.000000 0.000000 0.000000
					}
				}
			}
		}
	}
	JOINT lowerback
	{
		OFFSET 0.004439 0.124404 -0.038385
		CHANNELS 3 Zrotation Yrotation Xrotation
		JOINT upperback
		{
			OFFSET 0.004488 0.137956 0.026820
			CHANNELS 3 Zrotation Yrotation Xrotation
			JOINT chest
			{
				OFFSET -0.002265 0.056032 0.002855
				CHANNELS 3 Zrotation Yrotation Xrotation
				JOINT lowerneck
				{
					OFFSET -0.013390 0.211636 -0.033468
					CHANNELS 3 Zrotation Yrotation Xrotation
					JOINT upperneck
					{
						OFFSET 0.010113 0.088937 0.050410
						CHANNELS 3 Zrotation Yrotation Xrotation
						End Site
						{
							OFFSET 0.000000 0.000000 0.000000
						}
					}
				}
				JOINT lclavicle
				{
					OFFSET 0.071702 0.114000 -0.018898
					CHANNELS 3 Zrotation Yrotation Xrotation
					JOINT lshoulder
					{
						OFFSET 0.122921 0.045205 -0.019046
						CHANNELS 3 Zrotation Yrotation Xrotation
						JOINT lelbow
						{
							OFFSET 0.255332 -0.015649 -0.022946
							CHANNELS 3 Zrotation Yrotation Xrotation
							JOINT lwrist
							{
								OFFSET 0.265709 0.012698 -0.007375
								CHANNELS 3 Zrotation Yrotation Xrotation
								End Site
								{
									OFFSET 0.000000 0.000000 0.000000
								}
							}
						}
					}
				}
				JOINT rclavicle
				{
					OFFSET -0.082954 0.112472 -0.023707
					CHANNELS 3 Zrotation Yrotation Xrotation
					JOINT rshoulder
					{
						OFFSET -0.113228 0.046853 -0.008472
						CHANNELS 3 Zrotation Yrotation Xrotation
						JOINT relbow
						{
							OFFSET -0.260127 -0.014369 -0.031269
							CHANNELS 3 Zrotation Yrotation Xrotation
							JOINT rwrist
							{
								OFFSET -0.269108 0.006794 -0.006027
								CHANNELS 3 Zrotation Yrotation Xrotation
								End Site
								{
									OFFSET 0.000000 0.000000 0.000000
								}
							}
						}
					}
				}
			}
		}
	}
}
MOTION
Frames: 12
Frame Time: 0.033333
0.549100 0.228625 0.991739 87.434207 3.991701 96.051541 6.560659 4.415103 -2.405356 3.839524 -3.130671 -7.788941 -1.051026 11.061400 -3.004138 0.000000 -0.000000 0.000000 -0.867740 -1.814227 -8.064021 -0.863795 2.471396 0.818856 5.283135 -5.115653 -3.274740 0.000000 -0.000000 0.000000 0.895282 0.693059 2.864294 2.532191 -2.678257 -1.251221 0.167604 1.967507 -5.410480 -0.496020 2.680608 -1.060145 3.401862 4.461443 -7.884905 -20.066158 6.637739 -7.153407 -61.293309 -1.119187 24.051977 6.467253 -18.237770 10.301252 -7.043998 -7.006883 6.644806 21.181822 -2.783183 -3.428497 53.809205 3.533936 16.897610 -1.837086 16.267731 1.773094 10.196192 2.861768 -6.110033 
0.549345 0.228594 0.991355 87.448642 4.146661 95.477355 6.863292 4.370764 -1.715174 3.702041 -3.121738 -7.903402 -1.010060 10.995589 -2.891977 0.000000 -0.000000 0.000000 -0.657976 -1.949750 -7.335987 -0.918317 2.727503 0.634094 5.244500 -5.062120 -3.411270 0.000000 -0.000000 0.000000 1.058622 0.702913 3.673455 2.515990 -2.575068 -2.347278 0.394442 2.081494 -4.723892 -0.680447 2.778879 -0.865840 3.417692 3.684003 -6.433246 -20.440093 6.099164 -6.600048 -61.078999 -1.331822 23.733192 6.623336 -18.145836 11.159770 -7.443542 -7.529497 6.580702 21.459682 -2.159304 -3.001116 53.661549 3.179772 17.163780 -3.093382 16.102683 1.513509 10.657260 3.054176 -7.039811 
0.549674 0.228524 0.991092 87.382784 4.129656 95.443704 6.829069 4.345188 -1.661683 3.710221 -3.129945 -7.928633 -1.040811 11.134696 -2.849095 0.000000 -0.000000 0.000000 -0.532835 -1.877688 -7.108568 -1.189508 2.974289 0.255820 5.312979 -5.333945 -3.292064 0.000000 -0.000000 0.000000 0.990403 0.691556 3.446340 2.567119 -2.559562 -2.379550 0.441927 2.006579 -4.688599 -0.713753 2.723145 -0.483028 3.573587 3.469000 -5.381427 -20.323352 6.227687 -6.382191 -61.297810 -1.341317 23.763883 6.736601 -18.074088 11.269778 -7.351685 -7.401252 6.543181 21.382878 -1.820398 -2.646326 53.558490 3.377416 17.329367 -3.019000 15.656544 1.326633 10.664321 2.906869 -7.171691 
0.550793 0.228016 0.990841 87.621464 4.140683 95.808181 6.869412 4.314732 -2.057063 3.646160 -3.263258 -7.919916 -1.254538 11.210031 -2.879866 0.000000 -0.000000 0.000000 -0.357054 -1.843107 -7.233874 -1.338501 2.987632 -0.056500 5.118229 -5.461199 -3.461003 0.000000 -0.000000 0.000000 0.936002 0.513471 2.304339 2.722213 -2.702351 -1.556880 0.483024 1.827212 -5.247099 -0.749935 2.818991 0.910217 3.564994 3.626602 -4.987267 -20.251666 6.222869 -6.092279 -61.526091 -1.073862 23.922817 6.946305 -18.087031 10.560138 -7.040489 -6.666844 6.558240 20.906577 -0.769406 -1.702080 53.641492 3.673518 17.500826 -2.645074 14.743617 0.279500 10.523219 2.657207 -7.514182 
0.550734 0.228033 0.990754 87.654713 4.120335 95.930887 6.825430 4.272588 -2.226994 3.652186 -3.262322 -7.878963 -1.259279 11.245175 -2.887993 0.000000 -0.000000 0.000000 -0.370483 -1.800015 -7.361363 -1.348026 2.980568 -0.068044 5.097574 -5.521115 -3.460144 0.000000 -0.000000 0.000000 0.917667 0.510147 2.121057 2.748787 -2.703713 -1.460437 0.478878 1.796946 -5.271571 -0.746796 2.974456 0.892046 3.483963 3.746887 -4.764190 -20.273636 6.268672 -6.171218 -61.590286 -1.125998 24.012447 6.970321 -18.032169 10.617158 -6.971811 -6.594498 6.514766 20.949744 -0.740285 -1.640736 53.553726 3.743459 17.544334 -2.632410 14.661219 0.187388 10.398936 2.682907 -7.464484 
0.550415 0.228157 0.990445 87.769586 4.122376 96.014191 6.810500 4.223470 -2.395589 3.664185 -3.299986 -7.827405 -1.270518 11.218393 -2.863396 0.000000 -0.000000 0.000000 -0.342538 -1.782347 -7.445788 -1.370457 2.977332 -0.098208 5.066793 -5.655152 -3.464327 0.000000 -0.000000 0.000000 0.918329 0.504446 2.151312 2.808717 -2.727153 -1.594071 0.534252 1.725444 -5.147649 -0.793965 3.206453 0.729364 3.418775 3.926764 -4.680050 -20.272420 6.283150 -6.286465 -61.870300 -1.302869 24.114050 7.108246 -17.883528 11.047068 -7.049375 -6.363132 6.043494 21.062394 -0.839144 -1.719459 53.325348 3.872450 17.585504 -2.635407 14.672399 0.461977 10.449573 2.634233 -7.432742 
0.550174 0.228184 0.990276 87.859574 4.100852 96.066221 6.776143 4.250319 -2.480948 3.673142 -3.364872 -7.859136 -1.308410 11.160674 -2.827521 0.000000 -0.000000 0.000000 -0.350928 -1.819964 -7.492499 -1.380390 2.959812 -0.140311 5.081736 -5.664407 -3.392626 0.000000 -0.000000 0.000000 0.950131 0.493582 2.301918 2.774754 -2.736323 -1.727365 0.544758 1.724565 -5.071890 -0.873413 3.316454 0.382398 3.402467 4.026903 -4.842223 -20.271741 6.190693 -6.229122 -61.930533 -1.361891 24.058267 7.116165 -18.092088 11.171548 -6.832176 -6.355343 5.766896 21.062798 -0.997607 -1.772387 53.243837 4.045170 17.386442 -2.555976 14.840195 0.512650 10.493060 2.454585 -7.633417 
0.549832 0.228233 0.990285 87.943759 4.098949 96.116010 6.761729 4.237502 -2.593995 3.695074 -3.401537 -7.831758 -1.310795 11.127962 -2.815350 0.000000 -0.000000 0.000000 -0.339116 -1.830360 -7.535103 -1.406607 2.896132 -0.174503 5.073378 -5.679412 -3.372512 0.000000 -0.000000 0.000000 0.996232 0.511871 2.469314 2.735312 -2.736523 -1.855264 0.540395 1.776912 -5.072908 -0.935283 3.331248 0.070855 3.486672 4.078698 -4.912804 -20.238414 6.022743 -6.161273 -61.983196 -1.371567 24.097028 7.065078 -18.279985 11.296611 -6.623576 -6.489391 5.656711 21.023288 -0.946344 -1.757105 53.275475 4.012912 17.302866 -2.541360 14.843027 0.574529 10.412073 2.532309 -7.782367 
0.549531 0.228302 0.990285 88.027597 4.094489 96.163604 6.749416 4.230553 -2.690426 3.692105 -3.422801 -7.819809 -1.315219 11.108105 -2.783884 0.000000 -0.000000 0.000000 -0.336198 -1.837182 -7.556685 -1.424735 2.852343 -0.242995 5.078934 -5.688481 -3.322647 0.000000 -0.000000 0.000000 1.028564 0.496944 2.567875 2.704518 -2.759914 -1.942950 0.539866 1.815384 -5.065129 -0.954366 3.219096 -0.100076 3.612834 4.034104 -5.021994 -20.221275 5.901817 -6.074021 -62.013530 -1.418880 24.114242 7.023247 -18.408754 11.458405 -6.584568 -6.557299 5.606841 20.959398 -0.802986 -1.643827 53.320963 4.063976 17.251855 -2.477618 14.794977 0.610153 10.352091 2.618464 -7.894719 
0.549396 0.228318 0.990270 88.069603 4.092037 96.166725 6.762630 4.224524 -2.730983 3.667490 -3.434019 -7.780673 -1.313418 11.061031 -2.788977 0.000000 -0.000000 0.000000 -0.342301 -1.843755 -7.561543 -1.416720 2.826721 -0.237336 5.070746 -5.687044 -3.329909 0.000000 -0.000000 0.000000 1.006718 0.505115 2.622581 2.700944 -2.752802 -1.921645 0.571019 1.819441 -5.074733 -0.925814 3.029532 -0.285674 3.680976 3.754782 -5.005520 -20.219350 5.823867 -5.951112 -62.070114 -1.511186 24.058498 7.008576 -18.554208 11.617544 -6.571335 -6.557839 5.581200 20.915546 -0.762490 -1.524412 53.397402 4.145819 17.165724 -2.565271 14.879863 0.654244 10.289829 2.617906 -7.981298 
0.549357 0.228245 0.990259 88.108532 4.090528 96.158449 6.774808 4.215487 -2.738699 3.656519 -3.452456 -7.766609 -1.307914 11.037018 -2.783468 0.000000 -0.000000 0.000000 -0.330316 -1.860036 -7.542067 -1.433734 2.798985 -0.240871 5.012774 -5.728337 -3.336550 0.000000 -0.000000 0.000000 1.013953 0.517378 2.640911 2.681376 -2.741528 -1.864745 0.554280 1.813150 -5.152985 -0.941417 2.513147 -0.313111 3.765462 3.249652 -4.727185 -20.187927 5.716715 -5.745853 -62.160558 -1.593524 24.041774 7.124852 -18.654438 11.664523 -6.500205 -6.540260 5.607006 20.852945 -0.641376 -1.359514 53.529761 4.152160 17.118207 -2.632090 14.950490 0.680141 10.239685 2.614649 -8.139466 
0.549355 0.228190 0.990226 88.155817 4.089787 96.161092 6.787380 4.208848 -2.754300 3.643453 -3.442643 -7.760622 -1.307861 11.008150 -2.799119 0.000000 -0.000000 0.000000 -0.320031 -1.865572 -7.535499 -1.431940 2.809653 -0.248821 5.001503 -5.747767 -3.330432 0.000000 -0.000000 0.000000 1.018089 0.511841 2.674178 2.676180 -2.706408 -1.914379 0.509845 1.838004 -5.259277 -1.064119 1.334061 -0.135225 3.866231 2.070761 -4.325284 -20.143765 5.746309 -5.596183 -62.248273 -1.672093 24.128790 7.201716 -18.680879 11.703278 -6.289411 -6.505080 5.671149 20.804919 -0.602398 -1.292489 53.662962 4.078005 17.102764 -2.610877 14.998577 0.744533 10.049794 2.554150 -8.249742 
